<?xml version="1.0" encoding="UTF-8" standalone="no"?>
<svg
   xmlns:dc="http://purl.org/dc/elements/1.1/"
   xmlns:cc="http://creativecommons.org/ns#"
   xmlns:rdf="http://www.w3.org/1999/02/22-rdf-syntax-ns#"
   xmlns:svg="http://www.w3.org/2000/svg"
   xmlns="http://www.w3.org/2000/svg"
   xmlns:sodipodi="http://sodipodi.sourceforge.net/DTD/sodipodi-0.dtd"
   xmlns:inkscape="http://www.inkscape.org/namespaces/inkscape"
   enable-background="new 0 0 96 96"
   height="111.60001"
   id="Layer_1"
   version="1.1"
   viewBox="0 0 128 111.60001"
   width="128"
   xml:space="preserve"
   inkscape:version="0.91 r13725"
   sodipodi:docname="idcard-female.svg"
   inkscape:export-filename="/home/darren/Seafile/Development/Qonvince/dist/application_icon_24.png"
   inkscape:export-xdpi="16.879999"
   inkscape:export-ydpi="16.879999"><metadata
     id="metadata3214"><rdf:RDF><cc:Work
         rdf:about=""><dc:format>image/svg+xml</dc:format><dc:type
           rdf:resource="http://purl.org/dc/dcmitype/StillImage" /><dc:title></dc:title></cc:Work></rdf:RDF></metadata><defs
     id="defs3212"><inkscape:path-effect
       effect="gears"
       id="path-effect3229"
       is_visible="true"
       teeth="10"
       phi="5" /><inkscape:path-effect
       effect="envelope"
       id="path-effect3227"
       is_visible="true"
       yy="true"
       xx="true"
       bendpath1="m 15,33 36,0"
       bendpath2="m 51,33 0,42"
       bendpath3="m 15,75 36,0"
       bendpath4="m 15,33 0,42" /><inkscape:path-effect
       effect="skeletal"
       id="path-effect3225"
       is_visible="true"
       pattern="M 0,0 1,0"
       copytype="single_stretched"
       prop_scale="0.97"
       scale_y_rel="false"
       spacing="0"
       normal_offset="0"
       tang_offset="0"
       prop_units="false"
       vertical_pattern="false"
       fuse_tolerance="0" /><inkscape:path-effect
       effect="rough_hatches"
       id="path-effect3223"
       is_visible="true"
       direction="33,49 , 9,0"
       dist_rdm="75;1"
       growth="0"
       do_bend="true"
       bender="33,54 , 5,0"
       bottom_edge_variation="4.2;1"
       top_edge_variation="4.2;1"
       bottom_tgt_variation="0;1"
       top_tgt_variation="0;1"
       scale_bf="1"
       scale_bb="1"
       scale_tf="1"
       scale_tb="1"
       top_smth_variation="0;1"
       bottom_smth_variation="0;1"
       fat_output="true"
       stroke_width_top="1"
       stroke_width_bottom="1"
       front_thickness="1"
       back_thickness="0.25" /></defs><sodipodi:namedview
     pagecolor="#ffffff"
     bordercolor="#666666"
     borderopacity="1"
     objecttolerance="10"
     gridtolerance="10"
     guidetolerance="10"
     inkscape:pageopacity="0"
     inkscape:pageshadow="2"
     inkscape:window-width="1920"
     inkscape:window-height="1009"
     id="namedview3210"
     showgrid="false"
     inkscape:zoom="2.8284271"
     inkscape:cx="112.73399"
     inkscape:cy="18.538339"
     inkscape:window-x="0"
     inkscape:window-y="0"
     inkscape:window-maximized="1"
     inkscape:current-layer="Layer_1"
     fit-margin-top="10"
     fit-margin-left="10"
     fit-margin-right="10"
     fit-margin-bottom="10" /><rect
     style="fill:#ffffff;fill-opacity:1;stroke:none;stroke-width:20;stroke-miterlimit:4;stroke-dasharray:none"
     id="rect3273"
     width="7.8769231"
     height="13.643955"
     x="59.991211"
     y="15.063726" /><path
     style="fill:#a3a3a3;fill-opacity:0.64705882;stroke:none;stroke-width:20;stroke-miterlimit:4;stroke-dasharray:none"
     d="m 16.246094,29.128894 0,65.828901 95.507806,0 0,-65.828901 -95.507806,0 z m 20.535936,15.614064 18.707813,0 0,15.754686 8.58047,0 0,23.629687 -33.616406,0 0,-23.629687 6.328123,0 0,-15.754686 z"
     id="rect3216"
     inkscape:connector-curvature="0" /><rect
     height="7.2000008"
     width="28.800003"
     x="74.800003"
     y="79.999992"
     id="rect3198" /><rect
     height="7.2000008"
     width="28.800003"
     x="74.800003"
     y="65.599998"
     id="rect3200" /><rect
     height="7.2000008"
     width="28.800003"
     x="74.800003"
     y="51.199986"
     id="rect3202" /><path
     d="m 67.600001,70.399989 c 0,-1.950001 -0.397202,-3.805201 -1.102801,-5.500801 l 0.0324,0.02401 -7.2384,-19.3068 -0.0084,0.02521 c -2.1804,-5.187601 -7.3116,-8.8416 -13.2828,-8.8416 -5.9616,0 -11.088,3.641999 -13.2732,8.8176 l 0,-0.0012 -7.238399,19.306801 0.0072,-0.0059 c -0.7008,1.690799 -1.095599,3.539999 -1.095599,5.482799 l 0,16.8 43.2,0 0,-16.8 z M 53.2,51.199988 c 0,3.970801 -3.2292,7.200001 -7.199999,7.200001 -3.578401,0 -6.546001,-2.625601 -7.099201,-6.050401 l 12.2784,-6.1392 c 1.248001,1.296 2.0208,3.052801 2.0208,4.9896 z m 7.199999,28.800001 -28.799999,0 0,-9.6 c 0,-3.738 2.8644,-6.819601 6.5148,-7.165201 2.2668,1.4904 4.974,2.3652 7.885201,2.3652 2.911199,0 5.618398,-0.8748 7.8852,-2.3652 3.6504,0.3456 6.514798,3.427201 6.514798,7.165201 l 0,9.6 z"
     id="path3204"
     inkscape:connector-curvature="0" /><path
     d="m 114.39999,22.399988 -43.199991,0 0,7.2 39.600011,0 0,64.799997 -93.60001,0 0,-64.799997 39.600001,0 0,-7.2 -43.200001,0 c -1.9884,0 -3.6,1.612801 -3.6,3.600001 l 0,71.999996 c 0,1.987211 1.6116,3.600025 3.6,3.600025 l 100.79999,0 c 1.98841,0 3.60001,-1.612814 3.60001,-3.600025 l 0,-71.999996 c 0,-1.9872 -1.6116,-3.600001 -3.60001,-3.600001 z"
     id="path3206"
     inkscape:connector-curvature="0" /><path
     d="m 53.2,31.999988 0,-23.9999991 21.6,0 0,23.9999991 c 0,1.9884 -1.6116,3.6 -3.600001,3.6 l -14.399998,0 c -1.988401,0 -3.600001,-1.6116 -3.600001,-3.6 z m 7.199999,-3.599999 7.200002,0 0,-13.200001 -7.200002,0 0,13.200001 0,0 z"
     id="path3208"
     inkscape:connector-curvature="0" /></svg>